<?xml version="1.0" encoding="UTF-8"?>
<svg width="119px" height="27px" viewBox="0 0 119 27" version="1.1" xmlns="http://www.w3.org/2000/svg" xmlns:xlink="http://www.w3.org/1999/xlink">
    <!-- Generator: Sketch 55.2 (78181) - https://sketchapp.com -->
    <title>Group 2</title>
    <desc>Created with Sketch.</desc>
    <g id="Marshmello_landing-page" stroke="none" stroke-width="1" fill="none" fill-rule="evenodd">
        <g id="Simple_landngpage" transform="translate(-307.000000, -51.000000)" fill-rule="nonzero">
            <g id="Group-2" transform="translate(307.000000, 50.000000)">
                <path d="M46.05,23.25 C44.5499925,23.25 43.266672,23.0250023 42.2,22.575 C41.133328,22.1249977 40.3250028,21.533337 39.775,20.8 C39.2249973,20.066663 38.9333335,19.266671 38.9,18.4 C38.9,18.266666 38.9499995,18.1458339 39.05,18.0375 C39.1500005,17.9291661 39.2749993,17.875 39.425,17.875 L41.7,17.875 C41.8833342,17.875 42.0333327,17.9166662 42.15,18 C42.2666672,18.0833338 42.3749995,18.1999992 42.475,18.35 C42.6416675,18.9166695 43.0208304,19.3916648 43.6125,19.775 C44.2041696,20.1583353 45.0166615,20.35 46.05,20.35 C47.2166725,20.35 48.0958304,20.1541686 48.6875,19.7625 C49.2791696,19.3708314 49.575,18.8333368 49.575,18.15 C49.575,17.6999978 49.4250015,17.3250015 49.125,17.025 C48.8249985,16.7249985 48.3708364,16.4625011 47.7625,16.2375 C47.1541636,16.0124989 46.250006,15.7416683 45.05,15.425 C43.0833235,14.958331 41.6416713,14.3416705 40.725,13.575 C39.8083288,12.8083295 39.35,11.7083405 39.35,10.275 C39.35,9.3083285 39.616664,8.44583713 40.15,7.6875 C40.683336,6.92916287 41.4458284,6.3333355 42.4375,5.9 C43.4291716,5.4666645 44.5833267,5.25 45.9,5.25 C47.2833403,5.25 48.4791616,5.49166425 49.4875,5.975 C50.4958384,6.45833575 51.2624974,7.06249638 51.7875,7.7875 C52.3125026,8.51250363 52.5916665,9.23332975 52.625,9.95 C52.625,10.083334 52.5750005,10.2041661 52.475,10.3125 C52.3749995,10.4208339 52.2500007,10.475 52.1,10.475 L49.725,10.475 C49.3583315,10.475 49.108334,10.3250015 48.975,10.025 C48.8916663,9.491664 48.5666695,9.04583512 48,8.6875 C47.4333305,8.32916488 46.7333375,8.15 45.9,8.15 C44.9833287,8.15 44.2625026,8.32499825 43.7375,8.675 C43.2124974,9.02500175 42.95,9.53333 42.95,10.2 C42.95,10.6500023 43.083332,11.0249985 43.35,11.325 C43.616668,11.6250015 44.0333305,11.8874989 44.6,12.1125 C45.1666695,12.3375011 45.9916612,12.5916652 47.075,12.875 C48.5583407,13.208335 49.7374956,13.5833313 50.6125,14 C51.4875044,14.4166687 52.1333312,14.9416635 52.55,15.575 C52.9666687,16.2083365 53.175,17.0166617 53.175,18 C53.175,19.0833387 52.8791696,20.0208294 52.2875,20.8125 C51.6958304,21.6041706 50.8625054,22.2083313 49.7875,22.625 C48.7124946,23.0416687 47.4666737,23.25 46.05,23.25 Z M56.225,7.875 C56.0583325,7.875 55.9166673,7.81666725 55.8,7.7 C55.6833327,7.58333275 55.625,7.4416675 55.625,7.275 L55.625,5.45 C55.625,5.26666575 55.6833327,5.11666725 55.8,5 C55.9166673,4.88333275 56.0583325,4.825 56.225,4.825 L58.525,4.825 C58.7083343,4.825 58.8583328,4.88333275 58.975,5 C59.0916673,5.11666725 59.15,5.26666575 59.15,5.45 L59.15,7.275 C59.15,7.4416675 59.0875006,7.58333275 58.9625,7.7 C58.8374994,7.81666725 58.6916675,7.875 58.525,7.875 L56.225,7.875 Z M56.325,23 C56.1583325,23 56.0166672,22.9416673 55.9,22.825 C55.7833327,22.7083328 55.725,22.5666675 55.725,22.4 L55.725,10.6 C55.725,10.4166657 55.7833327,10.2708339 55.9,10.1625 C56.0166672,10.0541661 56.1583325,10 56.325,10 L58.45,10 C58.6166675,10 58.7583328,10.0583327 58.875,10.175 C58.9916673,10.2916672 59.05,10.4333325 59.05,10.6 L59.05,22.4 C59.05,22.5666675 58.9916673,22.7083328 58.875,22.825 C58.7583328,22.9416673 58.6166675,23 58.45,23 L56.325,23 Z M62.95,23 C62.7833325,23 62.6416673,22.9416673 62.525,22.825 C62.4083328,22.7083328 62.35,22.5666675 62.35,22.4 L62.35,10.6 C62.35,10.4166657 62.4083328,10.2708339 62.525,10.1625 C62.6416673,10.0541661 62.7833325,10 62.95,10 L64.925,10 C65.1083343,10 65.2541661,10.0541661 65.3625,10.1625 C65.4708339,10.2708339 65.525,10.4166657 65.525,10.6 L65.525,11.45 C66.4250045,10.316661 67.6333258,9.75 69.15,9.75 C71.0000093,9.75 72.291663,10.4916592 73.025,11.975 C73.425002,11.30833 73.991663,10.7708354 74.725,10.3625 C75.458337,9.95416462 76.2499958,9.75 77.1,9.75 C78.4666735,9.75 79.583329,10.216662 80.45,11.15 C81.316671,12.083338 81.75,13.4416577 81.75,15.225 L81.75,22.4 C81.75,22.5666675 81.6958339,22.7083328 81.5875,22.825 C81.4791661,22.9416673 81.3333343,23 81.15,23 L79.075,23 C78.9083325,23 78.7666673,22.9416673 78.65,22.825 C78.5333327,22.7083328 78.475,22.5666675 78.475,22.4 L78.475,15.425 C78.475,14.3749947 78.2541689,13.616669 77.8125,13.15 C77.3708311,12.683331 76.7916703,12.45 76.075,12.45 C75.4249968,12.45 74.8708356,12.6874976 74.4125,13.1625 C73.9541644,13.6375024 73.725,14.3916615 73.725,15.425 L73.725,22.4 C73.725,22.5666675 73.6708339,22.7083328 73.5625,22.825 C73.4541661,22.9416673 73.3083343,23 73.125,23 L71.025,23 C70.8583325,23 70.7166673,22.9416673 70.6,22.825 C70.4833328,22.7083328 70.425,22.5666675 70.425,22.4 L70.425,15.425 C70.425,14.3916615 70.2000023,13.6375024 69.75,13.1625 C69.2999978,12.6874976 68.7250035,12.45 68.025,12.45 C67.3749968,12.45 66.8208356,12.6874976 66.3625,13.1625 C65.9041644,13.6375024 65.675,14.3916615 65.675,15.425 L65.675,22.4 C65.675,22.5666675 65.6208339,22.7083328 65.5125,22.825 C65.4041661,22.9416673 65.2583343,23 65.075,23 L62.95,23 Z M85.55,27.75 C85.3833325,27.75 85.2416673,27.6958339 85.125,27.5875 C85.0083327,27.4791661 84.95,27.3333343 84.95,27.15 L84.95,10.6 C84.95,10.4166657 85.0083327,10.2708339 85.125,10.1625 C85.2416673,10.0541661 85.3833325,10 85.55,10 L87.55,10 C87.7333343,10 87.8833327,10.0583327 88,10.175 C88.1166673,10.2916672 88.175,10.4333325 88.175,10.6 L88.175,11.6 C89.0583377,10.3666605 90.3833245,9.75 92.15,9.75 C93.8333417,9.75 95.1249955,10.2791614 96.025,11.3375 C96.9250045,12.3958386 97.408333,13.8166577 97.475,15.6 C97.4916668,15.800001 97.5,16.099998 97.5,16.5 C97.5,16.900002 97.4916668,17.199999 97.475,17.4 C97.4249998,19.1500087 96.9458379,20.5624946 96.0375,21.6375 C95.1291621,22.7125054 93.8333417,23.25 92.15,23.25 C90.483325,23.25 89.2083377,22.6583393 88.325,21.475 L88.325,27.15 C88.325,27.3333343 88.2708339,27.4791661 88.1625,27.5875 C88.0541661,27.6958339 87.9083342,27.75 87.725,27.75 L85.55,27.75 Z M91.2,20.55 C92.9833423,20.55 93.9333328,19.450011 94.05,17.25 C94.0666668,17.0833325 94.075,16.833335 94.075,16.5 C94.075,16.166665 94.0666668,15.9166675 94.05,15.75 C93.9333328,13.549989 92.9833423,12.45 91.2,12.45 C90.2499953,12.45 89.541669,12.7583303 89.075,13.375 C88.608331,13.9916697 88.3583335,14.7416622 88.325,15.625 C88.3083333,15.825001 88.3,16.1416645 88.3,16.575 C88.3,17.0083355 88.3083333,17.3333322 88.325,17.55 C88.3583335,18.3833375 88.6166643,19.0916638 89.1,19.675 C89.5833358,20.2583362 90.2833288,20.55 91.2,20.55 Z M100.9,23 C100.733332,23 100.591667,22.9416673 100.475,22.825 C100.358333,22.7083328 100.3,22.5666675 100.3,22.4 L100.3,5.85 C100.3,5.66666575 100.358333,5.52083387 100.475,5.4125 C100.591667,5.30416612 100.733332,5.25 100.9,5.25 L103,5.25 C103.183334,5.25 103.329166,5.30416612 103.4375,5.4125 C103.545834,5.52083387 103.6,5.66666575 103.6,5.85 L103.6,22.4 C103.6,22.5666675 103.545834,22.7083328 103.4375,22.825 C103.329166,22.9416673 103.183334,23 103,23 L100.9,23 Z M112.55,23.25 C110.683324,23.25 109.204172,22.716672 108.1125,21.65 C107.020828,20.583328 106.441667,19.0666765 106.375,17.1 L106.35,16.475 C106.35,14.3916563 106.895828,12.75 107.9875,11.55 C109.079172,10.349994 110.591657,9.75 112.525,9.75 C114.508343,9.75 116.037495,10.349994 117.1125,11.55 C118.187505,12.75 118.725,14.34999 118.725,16.35 L118.725,16.875 C118.725,17.0416675 118.666667,17.1833327 118.55,17.3 C118.433333,17.4166672 118.283334,17.475 118.1,17.475 L109.8,17.475 L109.8,17.675 C109.833334,18.608338 110.087498,19.3791636 110.5625,19.9875 C111.037502,20.5958364 111.691663,20.9 112.525,20.9 C113.475005,20.9 114.249997,20.5166705 114.85,19.75 C115.000001,19.5666657 115.116666,19.4541669 115.2,19.4125 C115.283334,19.3708331 115.424999,19.35 115.625,19.35 L117.825,19.35 C117.975001,19.35 118.104166,19.3916663 118.2125,19.475 C118.320834,19.5583337 118.375,19.6749992 118.375,19.825 C118.375,20.225002 118.137502,20.6958306 117.6625,21.2375 C117.187498,21.7791694 116.508338,22.25 115.625,22.65 C114.741662,23.050002 113.716673,23.25 112.55,23.25 Z M115.275,15.35 L115.275,15.3 C115.275,14.3166618 115.029169,13.5291696 114.5375,12.9375 C114.045831,12.3458304 113.375004,12.05 112.525,12.05 C111.674996,12.05 111.008336,12.3458304 110.525,12.9375 C110.041664,13.5291696 109.8,14.3166618 109.8,15.3 L109.8,15.35 L115.275,15.35 Z" id="Simple" fill="#303535"></path>
                <path d="M16.5027624,18.2295082 L17.8287293,16 L23,24.852459 C21.7624248,25.8579285 20.3922727,26.633877 18.8895028,27.1803279 C17.3867328,27.7267787 15.7734893,28 14.0497238,28 C12.988945,28 11.9723806,27.8907115 11,27.6721311 L16.5027624,18.2295082 Z M1,19 L15,19 L9.65700483,28 C7.58292039,27.2444407 5.80193981,26.0777857 4.31400966,24.5 C2.82607952,22.9222143 1.72142068,21.0888993 1,19 Z M9.32317073,14.0106952 L11,17 L0.268292683,17 C0.08943,16.0267331 0,15.0303081 0,14.0106952 C0,12.0641614 0.3353625,10.2335202 1.00609756,8.51871658 C1.67683262,6.80391299 2.59349012,5.2976892 3.75609756,4 L9.32317073,14.0106952 Z M27.7317073,12 C27.91057,12.9732669 28,13.9696919 28,14.9893048 C28,16.9358386 27.6646375,18.7548935 26.9939024,20.4465241 C26.3231674,22.1381546 25.4065099,23.6559648 24.2439024,25 L17,12 L27.7317073,12 Z M27,11 L13,11 L18.3429952,2 C20.4170796,2.75555933 22.1980602,3.92221433 23.6859903,5.5 C25.1739205,7.07778567 26.2785793,8.91110067 27,11 Z M10.3038674,12.8688525 L10.1712707,13 L5,4.14754098 C6.23757525,3.14207148 7.60772729,2.36612295 9.11049724,1.81967213 C10.6132672,1.27322131 12.2265107,1 13.9502762,1 C15.011055,1 16.0276194,1.10928852 17,1.32786885 L10.3038674,12.8688525 Z" id="" fill="#FF0000"></path>
            </g>
        </g>
    </g>
</svg>